<svg width="60" height="60" viewBox="0 0 60 60" xmlns="http://www.w3.org/2000/svg" xmlns:xlink="http://www.w3.org/1999/xlink"><title>embed</title><desc>Created with Sketch.</desc><defs><path d="M4.067 6.572v4.795c-.032.611.084 1.066.342 1.404.21.21.584.314 1.14.351.108.005.834.019 1.14 0v1.637c-.34.037-.588.117-1.254.117-1.152 0-1.901-.275-2.393-.819-.545-.554-.804-1.378-.912-2.573v-4.912h-2.051v-1.988h2.051v-3.158h1.937v3.158h2.621v1.988h-2.621z" id="a"/></defs><g fill="none"><g fill="#000" fill-opacity=".105" transform="translate(-20 -20) translate(20 20)"><rect width="60" height="3" rx="1.5"/><rect y="5" width="60" height="3" rx="1.5"/><rect y="10" width="60" height="3" rx="1.5"/></g><g transform="translate(0 47)" fill="#000" fill-opacity=".105"><rect width="60" height="3" rx="1.5"/><rect y="5" width="60" height="3" rx="1.5"/><rect y="10" width="60" height="3" rx="1.5"/></g><g transform="translate(0 18)"><rect id="form-bg" fill="#aaa" width="60" height="24" rx="2" style="transition:all .25s ease"/><g transform="translate(25 4)"><path fill="#8ACBCB" d="M8.739 16.045h1.254v-15.789h-1.254z"/><mask><use xlink:href="#a"/></mask><use fill="#fff" xlink:href="#a"/></g></g></g></svg>
