<?xml version="1.0" encoding="UTF-8"?>
<svg width="196px" height="195px" viewBox="0 0 196 195" version="1.1" xmlns="http://www.w3.org/2000/svg" xmlns:xlink="http://www.w3.org/1999/xlink">
    <!-- Generator: Sketch 42 (36781) - http://www.bohemiancoding.com/sketch -->
    <title>icn-ochre-195x195</title>
    <desc>Created with Sketch.</desc>
    <defs>
        <polygon id="path-1" points="0 135 11 135 11 0 0 0"></polygon>
        <path d="M35,44 L35,85 C34.716,90.223 35.741,94.113 38,97 C39.843,98.794 43.121,99.688 48,100 C48.951,100.046 55.318,100.162 58,100 L58,114 C55.02,114.32 52.841,115 47,115 C36.89,115 30.319,112.653 26,108 C21.216,103.265 18.942,96.222 18,86 L18,44 L0,44 L0,27 L18,27 L18,0 L35,0 L35,27 L58,27 L58,44 L35,44 Z" id="path-3"></path>
    </defs>
    <g id="Page-1" stroke="none" stroke-width="1" fill="none" fill-rule="evenodd">
        <g id="icn-ochre-195x195">
            <g id="Group-3" fill="#B1EFEF">
                <path d="M0.06,183.004019 C0.06,189.629217 5.42781296,195 12.0559806,195 L183.064019,195 C189.689217,195 195.06,189.632187 195.06,183.004019 L195.06,11.9959806 C195.06,5.37078345 189.692187,0 183.064019,0 L12.0559806,0 C5.43078345,0 0.06,5.36781296 0.06,11.9959806 L0.06,183.004019 Z" id="Fill-1"></path>
            </g>
            <g id="Group-6" transform="translate(123.000000, 29.000000)">
                <mask id="mask-2" fill="white">
                    <use xlink:href="#path-1"></use>
                </mask>
                <use id="Clip-5" fill="#FFFFFF" xlink:href="#path-1"></use>
            </g>
            <g id="Group-9" transform="translate(47.000000, 39.000000)">
                <mask id="mask-4" fill="white">
                    <use xlink:href="#path-3"></use>
                </mask>
                <use id="Clip-8" fill="#FFFFFF" xlink:href="#path-3"></use>
            </g>
        </g>
    </g>
</svg>